# xmcd
#
# Track frame offsets:
#	150
#	15440
#	32386
#	46758
#	82601
#	100904
#	113982
#	125106
#	141909
#	164362
#	181096
#	191337
#
# Disc length: 2748 seconds
# Revision: 0
# Processed by: cddbd v1.5.2PL0 Copyright (c) Steve Scherf et al.
# Submitted via: dBpowerAMP V12.0
#
DISCID=8a0aba0c
DTITLE=Wyatt  Rice and Dan  Menzone Alliance - Something Out of the Blue
DYEAR=2016
DGENRE=Country
TTITLE0=Lonesome Highway
TTITLE1=Wake Up Call
TTITLE2=I Know What It Means to be Lonesome
TTITLE3=Grey Rain
TTITLE4=Big Black Wheels
TTITLE5=Cutting the Chords
TTITLE6=Another Town
TTITLE7=Five Play
TTITLE8=Faith, Hope and Love
TTITLE9=Beating Around the Bush
TTITLE10=I'll Sail My Ship Alone
TTITLE11=Turnagain
EXTD=
EXTT0=
EXTT1=
EXTT2=
EXTT3=
EXTT4=
EXTT5=
EXTT6=
EXTT7=
EXTT8=
EXTT9=
EXTT10=
EXTT11=
PLAYORDER=
